<svg width="60" height="60" viewBox="0 0 60 60" fill="none" xmlns="http://www.w3.org/2000/svg">
<path fill-rule="evenodd" clip-rule="evenodd" d="M46.4287 52.6762C41.8142 56.0251 36.1377 58 30 58C14.536 58 2 45.464 2 30C2 24.2901 3.70914 18.9794 6.64373 14.5515C6.80263 14.7795 6.98735 14.9831 7.19801 15.1613L7.20909 15.1698C7.50937 15.4008 7.86467 15.5121 8.26 15.5121C8.38543 15.5121 8.55434 15.5018 8.76206 15.4829C8.98439 15.4644 9.22548 15.4459 9.48537 15.4273L9.49454 15.4266L9.50365 15.4254C9.78279 15.3882 10.0713 15.351 10.3692 15.3137L10.3783 15.3126L10.3873 15.3109L10.4294 15.3029C10.2829 15.5086 10.1388 15.7223 9.99682 15.944C9.69075 16.4033 9.41376 16.8907 9.1657 17.4059C8.91521 17.9262 8.71281 18.4657 8.55872 19.0242L8.55696 19.0313C8.42053 19.577 8.352 20.1241 8.352 20.672C8.352 21.0981 8.42309 21.5143 8.56481 21.9192L8.5665 21.9238C8.70942 22.3117 8.91443 22.6606 9.18129 22.9685C9.45015 23.2787 9.77107 23.527 10.1418 23.7124C10.5233 23.9031 10.9432 23.996 11.396 23.996C11.949 23.996 12.584 23.8535 13.2942 23.5847L13.3007 23.5821C14.0058 23.2962 14.7368 22.9352 15.4935 22.5001L15.4956 22.499C16.2687 22.0464 17.0413 21.547 17.8133 21.001L17.8172 20.9982C18.3993 20.5722 18.9497 20.1459 19.4684 19.7192C19.4746 20.1029 19.5461 20.4448 19.6999 20.7303L19.704 20.7379L19.7085 20.7453C19.8725 21.0119 20.0623 21.2357 20.2806 21.4103L20.2933 21.4204L20.3069 21.4291C20.5323 21.5726 20.7692 21.686 21.0171 21.7687L21.0281 21.7723L21.0392 21.7751C21.2756 21.8342 21.4886 21.868 21.672 21.868C21.73 21.868 21.776 21.852 21.795 21.845C21.8194 21.836 21.8414 21.8253 21.859 21.816C21.8944 21.7974 21.9327 21.7735 21.9714 21.7477C22.0498 21.6954 22.1518 21.6205 22.2749 21.5258C22.5118 21.3436 22.8058 21.1325 23.1575 20.8918L23.166 20.8856C23.5185 20.6258 23.8898 20.3566 24.2797 20.0781C24.515 19.9177 24.7404 19.7701 24.956 19.6352V23.556C24.956 24.1315 24.9465 24.6786 24.928 25.1973V25.208C24.928 25.7083 24.9185 26.2181 24.9 26.7373V26.748C24.9 27.2636 24.8814 27.8078 24.8445 28.3807L24.8409 28.4964C24.6438 28.4591 24.437 28.4316 24.221 28.4134C23.5363 28.3375 22.7516 28.3 21.868 28.3H21.023L21.6788 28.8329C22.2571 29.3028 22.7003 29.7839 23.0156 30.2743L23.0184 30.2785C23.3385 30.7586 23.5775 31.2637 23.7367 31.7943C23.8393 32.1365 23.9118 32.6056 23.9484 33.2102L23.9492 33.2192C24.004 33.8218 24.032 34.67 24.032 35.7681V47.556C24.032 48.1315 24.0225 48.6786 24.004 49.1973V49.208C24.004 49.7083 23.9945 50.2181 23.976 50.7373V50.7481C23.976 51.2636 23.9574 51.8078 23.9205 52.3807L23.9201 52.3907C23.9015 52.9886 23.8828 53.6424 23.8641 54.3522L23.848 54.9656L24.342 54.6016C24.7205 54.3227 25.101 53.9504 25.4845 53.4905C25.8784 53.0369 26.2277 52.4816 26.5348 51.8293C26.8445 51.19 27.0936 50.4594 27.2842 49.64C27.477 48.8111 27.572 47.8919 27.572 46.884V32.2401C27.572 31.3788 27.4488 30.6652 27.1784 30.1221C27.0242 29.7894 26.8174 29.5055 26.5594 29.2728C26.8792 28.8617 27.1602 28.3784 27.4043 27.8261C27.714 27.1862 27.9534 26.4555 28.125 25.6368C28.3172 24.8088 28.412 23.8905 28.412 22.8841V8.24005C28.412 7.37882 28.298 6.6672 28.0484 6.12633C27.7987 5.58529 27.4187 5.17135 26.9109 4.89626C26.4177 4.62914 25.8162 4.47216 25.1175 4.41347C24.4509 4.33751 23.6752 4.30005 22.792 4.30005H21.947L22.6028 4.83288C23.1811 5.30276 23.6243 5.78386 23.9396 6.2743L23.9424 6.27846C24.2625 6.75864 24.5015 7.26373 24.6607 7.79425C24.7633 8.13649 24.8358 8.60557 24.8724 9.21021L24.8732 9.21921C24.928 9.82182 24.956 10.67 24.956 11.7681V16.2066C24.6131 16.6711 24.2153 17.0707 23.7623 17.4064C23.4492 17.6351 23.1512 17.8256 22.868 17.9793V11.46C22.868 10.5701 22.7564 9.85424 22.5037 9.34457C22.2741 8.82629 21.9231 8.42981 21.4509 8.17226C20.9632 7.90809 20.3848 7.74085 19.7234 7.66261C19.0686 7.56664 18.3058 7.52924 17.4375 7.54812L16.5861 7.56663L17.2611 8.08584C17.7303 8.44677 18.1021 8.81125 18.3814 9.17786C18.6614 9.54535 18.88 9.94762 19.0377 10.3857L19.0391 10.3894C19.197 10.8104 19.3037 11.2796 19.3574 11.7989L19.3588 11.809C19.4313 12.3348 19.468 12.909 19.468 13.5321V17.0565C18.913 17.4998 18.3171 17.9196 17.6801 18.3157C16.9979 18.7213 16.3258 19.0802 15.6639 19.3928C15.0028 19.705 14.391 19.9514 13.8281 20.1332C13.2642 20.2966 12.8203 20.372 12.488 20.372C12.1536 20.372 11.9588 20.2961 11.8487 20.1971C11.7558 20.1135 11.668 19.93 11.668 19.5521C11.668 19.3359 11.7017 19.0214 11.7747 18.6004C11.8651 18.1678 11.9918 17.7151 12.1555 17.2422C12.3186 16.771 12.5181 16.3085 12.7542 15.8545C12.9815 15.4172 13.2468 15.0782 13.5458 14.8284C13.7172 14.6915 13.9269 14.5514 14.1768 14.4085C14.4308 14.2634 14.6941 14.1272 14.9669 13.9999L14.9741 13.9965L14.9812 13.9928C15.257 13.8456 15.5131 13.7176 15.7497 13.6084L15.7581 13.6046L15.7662 13.6002C15.996 13.4764 16.1845 13.365 16.327 13.2663C16.6184 13.1454 16.7965 12.9028 16.8684 12.5915L16.8693 12.5869C16.9345 12.2828 16.9337 11.9706 16.8702 11.6532C16.8061 11.3329 16.6776 11.0415 16.4849 10.7826C16.2973 10.5045 16.0404 10.3177 15.7195 10.2436L15.7108 10.2419C15.454 10.1905 15.1657 10.2333 14.8634 10.3334C14.5869 10.4128 14.3034 10.5207 14.0131 10.6562C13.7259 10.7903 13.4478 10.9339 13.1791 11.0874L13.1708 11.0926C12.9278 11.2421 12.7303 11.3643 12.5802 11.4582C12.1107 11.7538 11.5473 11.9755 10.8846 12.1188L10.8829 12.1192C10.2311 12.264 9.59031 12.3361 8.96 12.3361H8.27364C13.4077 6.02886 21.2334 2 30 2C36.194 2 41.9183 4.01125 46.5554 7.41632C46.3022 7.4732 46.0316 7.539 45.7436 7.61365C45.2407 7.74404 44.6536 7.89315 43.9822 8.061L43.9802 8.0615C43.3362 8.2271 42.5505 8.39357 41.6218 8.56074L41.6161 8.56188C40.9831 8.68848 40.2924 8.76159 39.5433 8.78005C38.8182 8.77955 37.9545 8.62866 36.9475 8.31743L36.3748 8.1404L36.5764 8.70495C36.6696 8.96587 36.7721 9.25484 36.884 9.5719L36.8866 9.57915L36.8895 9.58628C37.031 9.92978 37.2144 10.2368 37.4411 10.5049C37.6386 10.7418 37.8476 10.9515 38.0688 11.1324L38.0789 11.14C38.338 11.3343 38.6366 11.4717 38.9702 11.5551C39.1357 11.5965 39.3111 11.6221 39.4957 11.6328C39.4275 11.644 39.3597 11.6564 39.2921 11.6699L38.9176 11.7448L39.0791 12.0909C39.2068 12.3646 39.3446 12.6859 39.4924 13.0555C39.6405 13.4256 39.7887 13.8146 39.937 14.2226C40.0855 14.6308 40.2246 15.0296 40.3543 15.4189L40.592 16.132C40.07 16.1433 39.5171 16.12 38.933 16.0616C38.2258 15.989 37.3931 15.8249 36.4329 15.5664L35.8185 15.401L36.0818 15.9802C36.1759 16.1872 36.2979 16.4498 36.4475 16.7678L36.4521 16.7776L36.4575 16.7871C36.6351 17.103 36.8424 17.3991 37.0792 17.6753L37.0867 17.684L37.0948 17.6922C37.3304 17.9278 37.5694 18.1278 37.8124 18.2898L37.8217 18.2955C38.1005 18.4671 38.4171 18.5818 38.7668 18.6435L38.7696 18.644C39.1318 18.7043 39.5547 18.723 40.0349 18.7038C40.5184 18.6845 41.101 18.6172 41.7803 18.504C42.6814 18.3538 43.4908 18.1939 44.2081 18.0241L44.2153 18.0222C44.9024 17.8414 45.6373 17.7323 46.4209 17.6959L46.4309 17.6951C46.8694 17.66 47.3082 17.6862 47.7481 17.7742L47.7503 17.7747C48.2521 17.8712 48.8352 17.9378 49.4978 17.9756L49.5049 17.9759C50.131 17.9968 50.6602 17.8177 51.049 17.406C51.41 17.0249 51.6349 16.6185 51.6349 16.1921C51.6349 15.8827 51.5372 15.606 51.3231 15.3919C51.1371 15.2059 50.9087 15.0711 50.6458 14.9834C50.389 14.8978 50.1076 14.857 49.805 14.8561C49.5165 14.8372 49.2439 14.8372 48.9879 14.8569L48.9838 14.8573C48.5704 14.8949 48.1837 14.9419 47.8238 14.9985C47.7085 15.0107 47.595 15.0239 47.4833 15.038C47.5402 14.9419 47.596 14.8422 47.6506 14.7392C47.8416 14.3951 48.0049 14.0498 48.14 13.7034C48.2916 13.3614 48.4081 13.0425 48.4872 12.7474C48.582 12.4428 48.6389 12.1768 48.6389 11.964C48.6389 11.4214 48.4501 10.9669 48.0536 10.6405C47.8701 10.4893 47.6634 10.3772 47.4364 10.3015C47.7012 10.3075 47.9784 10.3176 48.2683 10.3317L48.2714 10.3318C48.7622 10.3507 49.2066 10.2415 49.5929 9.99707C54.7809 15.0793 58 22.1637 58 30C58 33.7714 57.2544 37.3686 55.9025 40.6523C55.9097 40.5753 55.9134 40.4965 55.9134 40.416C55.9134 40.0133 55.8177 39.643 55.6208 39.3133C55.4322 38.9793 55.1799 38.7047 54.8655 38.493C54.5743 38.2661 54.2433 38.1019 53.8757 37.9996C53.5217 37.8958 53.1645 37.864 52.8063 37.9061L52.5711 37.9338L52.5434 38.169C52.5118 38.438 52.4166 38.7041 52.251 38.9691L52.2481 38.9737C52.0958 39.2276 51.8893 39.4874 51.6248 39.7523C51.3607 39.9983 51.0598 40.2285 50.7212 40.4424C50.5137 40.5734 50.3031 40.6945 50.0894 40.8055V32.2401C50.0894 31.3788 49.9662 30.6653 49.6958 30.1222C49.4447 29.5804 49.0543 29.1683 48.5301 28.8951C48.0372 28.6286 47.4363 28.472 46.7384 28.4134C46.0537 28.3376 45.269 28.3 44.3854 28.3H43.5404L44.1962 28.8329C44.7745 29.3028 45.2177 29.7838 45.533 30.2743L45.5357 30.2785C45.8559 30.7586 46.0949 31.2637 46.254 31.7943C46.3567 32.1365 46.4293 32.6056 46.4659 33.2102L46.4666 33.2192C46.5214 33.8218 46.5494 34.67 46.5494 35.7681V47.556C46.5494 48.1315 46.5401 48.6786 46.5216 49.1973L46.5214 49.208C46.5214 49.7084 46.5121 50.2181 46.4936 50.7373L46.4934 50.7481C46.4934 51.2636 46.4749 51.8078 46.438 52.3807L46.4375 52.3907C46.4346 52.4845 46.4316 52.5796 46.4287 52.6762ZM49.752 49.8459C52.0695 47.5393 53.9853 44.8295 55.3853 41.8305C55.3341 41.8851 55.2793 41.9375 55.2206 41.9878L55.2141 41.9932C54.7906 42.3361 54.2737 42.6125 53.6697 42.8268L53.6615 42.8296C53.0692 43.0206 52.4222 43.1822 51.7211 43.3148L51.7147 43.316C51.1368 43.4123 50.5951 43.5223 50.0894 43.646V46.884C50.0894 47.8919 49.9943 48.8111 49.8016 49.64C49.7854 49.7093 49.7689 49.7779 49.752 49.8459ZM6.01162 11.9816C11.4857 4.70539 20.1933 0 30 0C46.5685 0 60 13.4315 60 30C60 46.5685 46.5685 60 30 60C13.4315 60 0 46.5685 0 30C0 23.2451 2.23254 17.0115 6 11.9971V11.9789L6.01162 11.9816ZM42.8139 20.6471C42.8515 21.0981 42.8797 21.5673 42.8985 22.0547C42.9259 22.411 42.9483 22.7427 42.9657 23.0498C43.4389 22.9889 43.8807 22.9281 44.291 22.8673C44.7303 22.8022 45.1549 22.73 45.5649 22.6508C45.6388 22.4255 45.6894 22.2016 45.7173 21.9788L45.7184 21.9698L45.7201 21.9608C45.7725 21.6811 45.7989 21.3917 45.7989 21.092C45.7989 20.652 45.6706 20.3057 45.4267 20.0314C45.1756 19.7488 44.8221 19.5421 44.3462 19.4231L43.7347 19.2702L44.2389 18.8921C44.4239 18.7533 44.6541 18.6467 44.9187 18.5653C45.1737 18.4869 45.4376 18.428 45.7102 18.3885C45.9816 18.3309 46.2534 18.2923 46.5256 18.2728C46.7914 18.2538 47.0229 18.244 47.2189 18.244C47.8216 18.244 48.343 18.4222 48.7597 18.7935C49.2001 19.1665 49.3949 19.7203 49.3949 20.392C49.3949 20.6917 49.365 21.0164 49.3069 21.3654C49.2772 21.5431 49.2401 21.7185 49.1955 21.8914C49.7386 21.7717 50.2268 21.6685 50.6601 21.5819C51.2362 21.4667 51.7788 21.4081 52.2869 21.4081C52.6908 21.4081 53.0853 21.4687 53.4693 21.59C53.8428 21.7079 54.1746 21.8575 54.4612 22.0412C54.7617 22.222 55.0069 22.4309 55.1845 22.6727C55.3752 22.9077 55.4989 23.1667 55.4989 23.444C55.4989 23.9102 55.2719 24.2994 54.8791 24.6049C54.4572 24.933 53.7493 25.06 52.8469 25.06C52.5793 25.06 52.2383 25.0505 51.8253 25.0317L51.8179 25.0314L51.8105 25.0307C51.4288 24.9943 51.0276 24.976 50.6069 24.976C48.587 24.976 46.5481 25.1243 44.4899 25.421C42.4422 25.7188 40.5352 26.0444 38.7686 26.3977C37.8351 26.603 37.072 26.7446 36.4821 26.821C35.8912 26.9161 35.326 26.964 34.7869 26.964C34.1493 26.964 33.5895 26.8344 33.1223 26.5583L33.117 26.5552C32.7068 26.3013 32.3583 26.0237 32.0756 25.7207L32.0699 25.7146C31.7772 25.3829 31.5229 25.0307 31.3073 24.6584L31.3027 24.6504L31.2986 24.6422C31.1093 24.2637 30.9475 23.9116 30.8135 23.5863L30.5982 23.0632L31.152 23.1783C32.5682 23.4726 34.041 23.6201 35.5709 23.6201C37.0029 23.6201 38.395 23.5574 39.7472 23.4322C39.5566 22.77 39.3661 22.1213 39.1756 21.4863L39.1731 21.4778C38.9714 20.726 38.7455 20.1244 38.4988 19.6663L38.3048 19.3059L38.7068 19.2293C39.1113 19.1523 39.5248 19.1041 39.9472 19.0846C40.3993 19.0459 40.8215 19.0745 41.2106 19.1757C41.6157 19.2579 41.9667 19.4133 42.2514 19.6512C42.5799 19.8899 42.7674 20.2275 42.8131 20.6389L42.8139 20.6471ZM43.1809 10.7137C42.705 10.8419 42.181 11.0072 41.6087 11.2103C41.1914 11.3632 40.8133 11.478 40.4759 11.5521L40.4989 11.5521C40.934 11.5521 41.3375 11.611 41.7066 11.7331C42.08 11.8379 42.4014 12.0174 42.6623 12.2752C42.961 12.532 43.1318 12.8711 43.1769 13.2728C43.1973 13.4375 43.2067 13.6526 43.2069 13.9125C43.2254 14.1575 43.2347 14.4191 43.2349 14.6974C43.2534 14.9596 43.2627 15.2303 43.2629 15.5094C43.2709 15.6218 43.2772 15.728 43.2818 15.8279L43.7721 15.7299C44.0198 15.6803 44.2753 15.6233 44.5387 15.5587C45.1985 14.8233 45.5189 14.0107 45.5189 13.1121C45.5189 12.9054 45.4664 12.7375 45.3691 12.5965C45.27 12.4531 45.1124 12.3201 44.8765 12.2062L44.8728 12.2044C44.4233 11.9797 43.8484 11.9123 43.1254 12.0358L42.9029 11.4943C43.2816 11.2292 43.6283 11.0165 43.9422 10.859C44.2527 10.6848 44.5574 10.547 44.8561 10.4474C44.9189 10.4265 44.9814 10.4069 45.0436 10.3885C44.9034 10.4041 44.7654 10.4216 44.6294 10.441L44.6201 10.4422C44.1311 10.4965 43.6514 10.5871 43.1809 10.7137ZM12.3838 45.3454L12.3803 45.3441C11.8801 45.1517 11.3363 44.8938 10.7495 44.5721C9.82491 44.0813 9.15803 43.588 8.79919 43.0815L8.79588 43.0768C8.45213 42.5713 8.26138 42.0417 8.24022 41.4916L8.23978 41.48C8.23978 41.2393 8.26007 40.9988 8.30008 40.7587L8.3016 40.7496L8.30368 40.7406C8.36584 40.4712 8.46818 40.1969 8.60767 39.9179L8.6112 39.9108C8.76753 39.6177 8.96124 39.3084 9.19091 38.983L9.19752 38.9737C9.44775 38.6465 9.76227 38.2849 10.1389 37.8892C10.564 37.4086 10.8871 37.0393 11.1089 36.7807C11.3031 36.5375 11.4662 36.2884 11.5992 36.0335C11.5935 35.7853 11.559 35.4626 11.4921 35.0614L11.4918 35.0594C11.4187 34.6029 11.2992 34.0227 11.1321 33.3172L11.0016 32.7661L11.5308 32.9677C11.9483 33.1268 12.3704 33.3533 12.797 33.6442C13.22 33.9326 13.606 34.2505 13.9542 34.598C14.3218 34.9276 14.6267 35.2712 14.8656 35.6296C15.1029 35.9855 15.252 36.3346 15.252 36.6641C15.252 36.7603 15.2471 36.8546 15.2373 36.9469C15.3947 36.8991 15.5656 36.865 15.7483 36.8431C16.0707 36.7865 16.3482 36.7561 16.576 36.7561C17.0672 36.7561 17.506 36.8683 17.8784 37.1067C18.2509 37.3153 18.5542 37.5978 18.7846 37.952C19.0283 38.2986 19.2007 38.6848 19.3023 39.108C19.4204 39.5236 19.48 39.9412 19.48 40.3601C19.48 40.9816 19.3495 41.6079 19.0939 42.237C18.8374 42.8684 18.4725 43.4401 18.0008 43.9512C17.5444 44.4472 16.9911 44.8515 16.3447 45.1651C15.7035 45.4854 15.0044 45.6441 14.252 45.6441C13.553 45.6441 12.9283 45.5471 12.3838 45.3454ZM14.9933 37.7614C14.9224 37.895 14.8369 38.022 14.7365 38.1417C14.3986 38.5672 13.8994 38.7674 13.2939 38.7831C12.7664 39.0746 12.3492 39.4513 12.0362 39.9125C11.7133 40.3885 11.556 40.8903 11.556 41.424C11.556 41.5244 11.6058 41.6683 11.7808 41.8606C11.9853 42.0643 12.2256 42.2535 12.5036 42.4275C12.8024 42.603 13.1088 42.7428 13.4229 42.8474C13.7439 42.9545 13.9894 43 14.168 43C14.7711 43 15.2452 42.7772 15.6162 42.3256L15.6202 42.3208C16.009 41.8671 16.22 41.2344 16.22 40.3881C16.22 39.9661 16.1273 39.5192 15.9342 39.0452C15.7724 38.6482 15.4652 38.2196 14.9933 37.7614ZM41.8167 41.4742C41.3757 41.3212 40.8628 41.1791 40.2794 41.0474L40.267 41.0449C40.0535 41.0061 39.8397 40.9769 39.6259 40.9574C39.5878 40.9536 39.5495 40.9502 39.5109 40.9471C39.6445 40.7017 39.7814 40.4387 39.9217 40.1582L39.9238 40.1539C40.1513 39.68 40.3507 39.2055 40.5219 38.7305C40.7109 38.2576 40.8631 37.8012 40.9781 37.3617C41.1118 36.9213 41.1854 36.5366 41.1854 36.216C41.1854 35.7448 41.0832 35.3071 40.8751 34.9084C40.67 34.4588 40.308 34.1401 39.8187 33.9487L39.8138 33.9468C39.1332 33.694 38.449 33.5564 37.7622 33.5363C37.0842 33.4979 36.4712 33.5555 35.9281 33.7164L35.07 33.9707L35.908 34.285C36.1764 34.3856 36.3942 34.5165 36.5676 34.674L36.5773 34.6825C36.7778 34.8496 36.9312 35.0289 37.0422 35.2192L37.0498 35.2323L37.0587 35.2445C37.1907 35.426 37.2751 35.5988 37.3199 35.763L37.3232 35.7749L37.3274 35.7866C37.3935 35.9684 37.4214 36.1198 37.4214 36.244C37.4214 36.7278 37.3263 37.2647 37.1288 37.8572L37.127 37.8626C36.9474 38.4373 36.6856 39.0343 36.3395 39.6537L36.338 39.6564C36.009 40.2595 35.6246 40.8639 35.1841 41.4697C34.7442 42.0561 34.2773 42.6054 33.7833 43.1179C33.2904 43.6106 32.7804 44.0475 32.2534 44.4291L32.2494 44.432C31.7451 44.8102 31.2684 45.0731 30.8192 45.2286L30.2998 45.4084L30.732 45.7479C31.0207 45.9747 31.3274 46.1353 31.6521 46.2219L31.6566 46.2231C31.9835 46.3048 32.3445 46.3441 32.7374 46.3441C33.2691 46.3441 33.8128 46.2213 34.3659 45.9845C34.9308 45.7506 35.4741 45.4396 35.9959 45.0531L35.9974 45.0521C36.5351 44.6487 37.0431 44.1886 37.5213 43.6721C37.9429 43.2181 38.3302 42.7431 38.6832 42.2471C38.7831 42.3304 38.8771 42.4161 38.9652 42.5042L38.9715 42.5104L38.9781 42.5163C39.1471 42.6666 39.3251 42.8166 39.5119 42.9663C39.8724 43.3095 40.2058 43.6704 40.5122 44.0488L40.5168 44.0543C40.837 44.4311 41.1484 44.7802 41.4509 45.1017L41.4571 45.1083L41.4638 45.1145C41.7901 45.4216 42.1099 45.6837 42.4234 45.8993C42.7679 46.1361 43.1438 46.2601 43.5454 46.2601C43.792 46.2601 44.0221 46.2094 44.2244 46.0955C44.426 45.9821 44.5839 45.8151 44.7005 45.6073C44.9338 45.2235 45.0494 44.7973 45.0494 44.336C45.0494 44.1204 45.0172 43.9123 44.9514 43.7134C44.8809 43.4814 44.7545 43.2758 44.5793 43.0978C44.3799 42.8604 44.1516 42.652 43.895 42.473C43.6492 42.2701 43.3507 42.0927 43.0046 41.9381C42.6686 41.7612 42.2716 41.6073 41.8167 41.4742Z" fill="#FF0000"/>
</svg>
