<svg xmlns="http://www.w3.org/2000/svg" width="12" height="11" viewBox="0 0 12 11" fill="none">
  <path d="M5.63721 0.781185C5.78057 0.472492 6.21943 0.472493 6.36279 0.781185L7.60614 3.45848C7.66442 3.58399 7.78343 3.67045 7.9208 3.6871L10.8513 4.04227C11.1892 4.08322 11.3248 4.50059 11.0755 4.73233L8.91345 6.74216C8.8121 6.83637 8.76664 6.97627 8.79326 7.11206L9.36104 10.0089C9.42651 10.3429 9.07147 10.6008 8.77404 10.4354L6.19447 9.00019C6.07355 8.93292 5.92645 8.93292 5.80553 9.00019L3.22596 10.4354C2.92853 10.6008 2.57349 10.3429 2.63896 10.0089L3.20674 7.11206C3.23336 6.97627 3.1879 6.83637 3.08655 6.74216L0.924505 4.73233C0.675221 4.50059 0.810835 4.08322 1.14872 4.04227L4.0792 3.6871C4.21657 3.67045 4.33558 3.58399 4.39386 3.45848L5.63721 0.781185Z" fill="#FF0000"/>
</svg>